<?xml version="1.0" encoding="UTF-8"?>
<svg version="1.1" xmlns="http://www.w3.org/2000/svg" width="1378" height="1376">
<path d="M0 0 C454.74 0 909.48 0 1378 0 C1378 454.08 1378 908.16 1378 1376 C923.26 1376 468.52 1376 0 1376 C0 921.92 0 467.84 0 0 Z " fill="#2E50C6" transform="translate(0,0)"/>
<path d="M0 0 C454.74 0 909.48 0 1378 0 C1378 454.08 1378 908.16 1378 1376 C923.26 1376 468.52 1376 0 1376 C0 921.92 0 467.84 0 0 Z M624.06231689 60.74353027 C621.88587629 61.01419242 619.70840862 61.27536552 617.53076172 61.53613281 C535.94729854 71.42516847 455.33742471 96.88661553 384 138 C383.09926758 138.51626953 382.19853516 139.03253906 381.27050781 139.56445312 C331.3234091 168.30018346 286.22195554 203.52289025 245.58105469 244.28857422 C243.47706263 246.39799657 241.36767965 248.50192439 239.2578125 250.60546875 C237.89030378 251.97363735 236.5231048 253.34211561 235.15625 254.7109375 C234.53947388 255.32568939 233.92269775 255.94044128 233.28723145 256.57382202 C228.99577182 260.88814275 224.96409983 265.38449493 221 270 C220.04989616 271.09411224 219.09944975 272.18792726 218.1484375 273.28125 C200.95577385 293.18806051 185.30087012 313.88128272 170.6875 335.75 C170.223367 336.44302216 169.75923401 337.13604431 169.28103638 337.85006714 C162.89448123 347.40268181 156.83305996 357.10055098 151 367 C150.49315674 367.84578613 149.98631348 368.69157227 149.46411133 369.56298828 C127.71604905 405.88531428 110.46840559 444.91049553 97 485 C96.64212402 486.0612207 96.28424805 487.12244141 95.91552734 488.21582031 C84.48505729 522.36507355 76.09158886 557.35285956 71 593 C70.86110352 593.95052246 70.72220703 594.90104492 70.57910156 595.88037109 C66.17029755 626.15588757 64.70917758 656.16705008 64.625 686.75 C64.62284611 687.45560436 64.62069221 688.16120872 64.61847305 688.88819504 C64.55171664 716.17248133 66.29966878 742.94704388 70 770 C70.10846252 770.80657043 70.21692505 771.61314087 70.32867432 772.44415283 C72.59918694 789.28600134 75.5754691 805.93807229 79.42675781 822.49365234 C79.97558507 824.89325225 80.49078067 827.2971256 80.9921875 829.70703125 C83.1747779 840.12123383 86.0199096 850.25199198 89.19311523 860.40625 C89.76442046 862.24272404 90.32830399 864.08151449 90.88696289 865.921875 C101.95133639 902.31761847 115.98294095 937.00095828 133 971 C133.49822266 972.00434082 133.99644531 973.00868164 134.50976562 974.04345703 C154.80312535 1014.78807475 180.82791774 1053.3714694 210.40234375 1087.93359375 C212.72652742 1090.65770986 214.95923584 1093.44669993 217.1875 1096.25 C228.34904183 1109.87250678 241.07519778 1122.17133036 253.5 1134.625 C254.15584076 1135.28351959 254.81168152 1135.94203918 255.48739624 1136.62051392 C262.14591166 1143.29963266 268.7780467 1149.92409456 276 1156 C277.19224415 1157.0444372 278.38234327 1158.09132795 279.5703125 1159.140625 C287.246467 1165.86981864 295.05664205 1172.35532448 303.15039062 1178.57568359 C305.09083873 1180.06995158 307.02211104 1181.5755964 308.953125 1183.08203125 C342.41581639 1209.06808816 378.70766201 1231.44547448 416.82666016 1249.93994141 C419.23913517 1251.11663951 421.64048932 1252.31475231 424.04296875 1253.51171875 C456.93569674 1269.74510402 492.41463508 1283.01301192 528 1292 C528.70362671 1292.17811218 529.40725342 1292.35622437 530.13220215 1292.53973389 C553.27823877 1298.38311809 576.34566551 1303.6632317 600 1307 C601.2684375 1307.18256348 602.536875 1307.36512695 603.84375 1307.55322266 C607.78975421 1308.11449086 611.73738228 1308.65600534 615.6875 1309.1875 C617.39329224 1309.42025635 617.39329224 1309.42025635 619.13354492 1309.65771484 C641.02029346 1312.45514301 662.89609353 1313.31171061 684.9453125 1313.20581055 C688.89329464 1313.18741476 692.84104162 1313.18530299 696.7890625 1313.18554688 C717.28023454 1313.15850955 737.56864311 1312.52506902 757.9375 1310.25 C758.72503662 1310.1631897 759.51257324 1310.07637939 760.32397461 1309.98693848 C806.76004085 1304.82660108 852.25206364 1294.40048872 896.41162109 1279.21777344 C898.88420424 1278.37866303 901.3568052 1277.55720421 903.84228516 1276.75878906 C910.53993526 1274.5982823 916.99785596 1272.24635356 923.36230469 1269.23291016 C926.08021353 1267.96250663 928.82525044 1266.8046852 931.6015625 1265.66796875 C966.21826384 1251.44879901 999.70756244 1234.57952523 1031 1214 C1032.14952148 1213.24807373 1032.14952148 1213.24807373 1033.32226562 1212.48095703 C1072.25333175 1186.97188565 1107.57577638 1157.46769001 1140.5 1124.625 C1141.11459076 1124.01308807 1141.72918152 1123.40117615 1142.36239624 1122.77072144 C1148.79639467 1116.35799314 1155.13660134 1109.94626108 1161 1103 C1162.04459708 1101.80789592 1163.09147733 1100.61778866 1164.140625 1099.4296875 C1170.85139728 1091.77439667 1177.29971417 1083.97609534 1183.51513672 1075.91455078 C1185.13399041 1073.82723564 1186.770812 1071.75485008 1188.41015625 1069.68359375 C1195.54915532 1060.63701975 1202.34567401 1051.45056125 1208.74707031 1041.86767578 C1209.91970706 1040.11968843 1211.1088516 1038.38450949 1212.3046875 1036.65234375 C1238.95021267 997.7841525 1259.67874557 955.63373516 1277.1998291 911.98934937 C1278.00410307 909.98979914 1278.81360835 907.99242948 1279.62402344 905.99536133 C1282.43980004 899.03801465 1285.15249253 892.06941666 1287.5 884.9375 C1287.78987793 884.06246826 1288.07975586 883.18743652 1288.37841797 882.28588867 C1291.36133391 873.13128221 1293.85578366 863.8568242 1296.31347656 854.55029297 C1296.93976156 852.22377338 1297.59622848 849.90978095 1298.2734375 847.59765625 C1302.27159274 833.89918846 1305.13432912 819.97245991 1308 806 C1308.19480957 805.07316406 1308.38961914 804.14632812 1308.59033203 803.19140625 C1316.6175952 764.94000535 1319.22462338 725.87688972 1319.1875 686.875 C1319.18689575 685.69501434 1319.1862915 684.51502869 1319.18566895 683.29928589 C1319.14358722 652.87959049 1317.58893521 623.11654983 1313 593 C1312.84691376 591.98093567 1312.84691376 591.98093567 1312.69073486 590.94128418 C1300.53982715 510.20655992 1272.35803861 431.8292879 1230 362 C1229.43893555 361.0704248 1228.87787109 360.14084961 1228.29980469 359.18310547 C1221.2419495 347.51900643 1213.89693625 336.11311376 1206 325 C1205.2265625 323.90776123 1205.2265625 323.90776123 1204.4375 322.79345703 C1194.70308865 309.07811604 1184.53173921 295.84451172 1173.59765625 283.06640625 C1171.27347258 280.34229014 1169.04076416 277.55330007 1166.8125 274.75 C1155.65095817 261.12749322 1142.92480222 248.82866964 1130.5 236.375 C1129.84415924 235.71648041 1129.18831848 235.05796082 1128.51260376 234.37948608 C1121.85408834 227.70036734 1115.2219533 221.07590544 1108 215 C1106.80775585 213.9555628 1105.61765673 212.90867205 1104.4296875 211.859375 C1096.75129643 205.12835261 1088.92777737 198.66771101 1080.83984375 192.43652344 C1078.96642596 190.97378587 1077.12252427 189.47950739 1075.28125 187.9765625 C1055.60400991 172.07294072 1033.90876233 157.99241698 1012.08007812 145.21875 C1010.64254601 144.37647766 1009.20919326 143.5270461 1007.77929688 142.671875 C973.73315748 122.31851543 937.37393367 106.15798718 900 93 C898.91428711 92.6174707 897.82857422 92.23494141 896.70996094 91.84082031 C836.65760096 70.86987115 772.3377222 58.02470625 708.58203125 57.796875 C707.24425221 57.78984912 705.90647349 57.78276234 704.56869507 57.77561951 C700.31662508 57.75622794 696.06460975 57.75118482 691.8125 57.75 C690.72400946 57.74933722 690.72400946 57.74933722 689.61352921 57.74866104 C667.66165578 57.74165597 645.87569657 58.02977648 624.06231689 60.74353027 Z " fill="#181818" transform="translate(0,0)"/>
<path d="M0 0 C3.59396479 1.19798826 3.73619291 1.82372395 5.42578125 5.06640625 C5.8851709 5.93177002 6.34456055 6.79713379 6.81787109 7.6887207 C7.31109863 8.63706787 7.80432617 9.58541504 8.3125 10.5625 C12.66891247 18.74968957 17.16443123 26.82375048 21.875 34.8125 C26.68432773 42.98762775 31.38909252 51.21132954 36 59.5 C40.57555742 67.72208385 45.23570895 75.88581681 50 84 C55.37196793 93.14913289 60.59076525 102.37403131 65.75 111.64453125 C69.74964452 118.81353695 73.84348044 125.92092763 78 133 C83.37196793 142.14913289 88.59076525 151.37403131 93.75 160.64453125 C97.74964599 167.81353957 101.84358252 174.92086585 106 182 C111.41450699 191.224351 116.68630694 200.52014472 121.89501953 209.86206055 C125.5215918 216.3650372 129.17542583 222.85076915 132.875 229.3125 C133.59284668 230.5663147 133.59284668 230.5663147 134.32519531 231.84545898 C135.8827621 234.56404198 137.44134138 237.28204286 139 240 C141.6267792 244.58231657 144.2519353 249.1655565 146.875 253.75 C147.21446655 254.34313995 147.55393311 254.93627991 147.90368652 255.5473938 C152.69402022 263.9208164 157.4291202 272.32312905 162.125 280.75 C167.2220918 289.89448548 172.44998813 298.95359206 177.75048828 307.98144531 C182.52923087 316.14118496 187.15176686 324.38208107 191.75 332.64453125 C195.74964452 339.81353695 199.84348044 346.92092763 204 354 C208.76429499 362.1141899 213.42416946 370.27806391 218 378.5 C222.62171156 386.80227458 227.32262415 395.05085404 232.125 403.25 C236.72853121 411.11344804 241.32739012 418.97903008 245.875 426.875 C246.39336426 427.76735352 246.91172852 428.65970703 247.44580078 429.57910156 C247.9148584 430.39604492 248.38391602 431.21298828 248.8671875 432.0546875 C249.48762939 433.12952393 249.48762939 433.12952393 250.12060547 434.22607422 C251 436 251 436 251 438 C86 438 -79 438 -249 438 C-248.07134934 434.28539734 -246.95881328 431.85541364 -245.11328125 428.546875 C-244.51185303 427.46519043 -243.9104248 426.38350586 -243.29077148 425.26904297 C-242.63159664 424.09588871 -241.97216613 422.92287808 -241.3125 421.75 C-240.63145072 420.5314916 -239.95054448 419.31290324 -239.26977539 418.09423828 C-234.35055345 409.30974327 -229.30393964 400.60273155 -224.20239258 391.92285156 C-220.04263504 384.8319174 -215.99728204 377.68363435 -212 370.5 C-206.86374835 361.27065229 -201.59787376 352.12762875 -196.25 343.01953125 C-191.4742304 334.86447824 -186.853866 326.62871571 -182.25878906 318.37084961 C-177.61306099 310.04302417 -172.82637018 301.80391396 -167.99951172 293.58007812 C-162.85540851 284.7985374 -157.8905862 275.92475638 -153 267 C-152.34 267 -151.68 267 -151 267 C-150.855625 266.21625 -150.71125 265.4325 -150.5625 264.625 C-150 262 -150 262 -149 260 C-148.34 260 -147.68 260 -147 260 C-146.855625 259.21625 -146.71125 258.4325 -146.5625 257.625 C-146 255 -146 255 -145 253 C-144.34 253 -143.68 253 -143 253 C-142.855625 252.21625 -142.71125 251.4325 -142.5625 250.625 C-142 248 -142 248 -141 246 C-140.34 246 -139.68 246 -139 246 C-138.855625 245.21625 -138.71125 244.4325 -138.5625 243.625 C-138 241 -138 241 -137 239 C-136.34 239 -135.68 239 -135 239 C-134.855625 238.21625 -134.71125 237.4325 -134.5625 236.625 C-134 234 -134 234 -133 232 C-132.34 232 -131.68 232 -131 232 C-130.855625 231.21625 -130.71125 230.4325 -130.5625 229.625 C-130 227 -130 227 -129 225 C-128.34 225 -127.68 225 -127 225 C-126.855625 224.21625 -126.71125 223.4325 -126.5625 222.625 C-126 220 -126 220 -125 218 C-124.34 218 -123.68 218 -123 218 C-122.855625 217.21625 -122.71125 216.4325 -122.5625 215.625 C-122 213 -122 213 -121 211 C-120.34 211 -119.68 211 -119 211 C-118.855625 210.21625 -118.71125 209.4325 -118.5625 208.625 C-118 206 -118 206 -117 204 C-116.34 204 -115.68 204 -115 204 C-114.855625 203.21625 -114.71125 202.4325 -114.5625 201.625 C-114 199 -114 199 -113 197 C-112.34 197 -111.68 197 -111 197 C-110.855625 196.21625 -110.71125 195.4325 -110.5625 194.625 C-110 192 -110 192 -109 190 C-108.34 190 -107.68 190 -107 190 C-106.89002686 189.28046143 -106.78005371 188.56092285 -106.66674805 187.81958008 C-105.94931572 184.78566358 -104.86701444 182.59511354 -103.33203125 179.88671875 C-102.77580078 178.89865234 -102.21957031 177.91058594 -101.64648438 176.89257812 C-101.04126953 175.83490234 -100.43605469 174.77722656 -99.8125 173.6875 C-99.18537109 172.57955078 -98.55824219 171.47160156 -97.91210938 170.33007812 C-93.09861109 161.85235836 -88.18833916 153.43153962 -83.25317383 145.02416992 C-79.07897549 137.8982129 -75.01595633 130.71617153 -71 123.5 C-65.86368611 114.27068598 -60.59787465 105.12763027 -55.25 96.01953125 C-51.07756041 88.8947181 -47.01504756 81.71453859 -43 74.5 C-37.86815927 65.27872369 -32.60872125 56.14253664 -27.26318359 47.04370117 C-22.95275324 39.68645104 -18.76895656 32.26460571 -14.625 24.8125 C-9.95021476 16.40706294 -5.18628774 8.10156129 0 0 Z " fill="#FEFEFE" transform="translate(691,404)"/>
<path d="M0 0 C1.3665381 1.19214181 2.70088111 2.42222589 4 3.6875 C4.69480469 4.35523438 5.38960937 5.02296875 6.10546875 5.7109375 C16.27576956 16.28194435 20.37373123 28.4394989 20.22827148 42.83837891 C19.91505341 55.31756977 14.6838582 67.88098311 5.921875 76.953125 C-6.48111886 88.14607068 -19.59109399 91.84150593 -35.984375 91.171875 C-46.17253746 90.41407779 -54.28186132 86.25809767 -62 79.6875 C-62.845625 79.11 -63.69125 78.5325 -64.5625 77.9375 C-73.76636215 69.44162725 -79.42420726 57.45654025 -80.23828125 45.05859375 C-80.53886806 29.12749277 -76.30245937 16.34138531 -65.3125 4.4375 C-47.20055372 -12.62346294 -20.17132245 -14.75782224 0 0 Z " fill="#FEFEFE" transform="translate(722,864.3125)"/>
<path d="M0 0 C0.74886475 0.00523682 1.49772949 0.01047363 2.26928711 0.01586914 C3.07817383 0.0190918 3.88706055 0.02231445 4.72045898 0.02563477 C5.5705957 0.03401367 6.42073242 0.04239258 7.29663086 0.05102539 C8.15063477 0.05553711 9.00463867 0.06004883 9.88452148 0.06469727 C12.00108749 0.07652166 14.11761771 0.0944577 16.23413086 0.11352539 C23.41397011 17.16810846 30.35418484 34.3145761 37.17953491 51.51391602 C38.05080305 53.70919622 38.92322351 55.90401943 39.79678345 58.09838867 C41.03478436 61.21006441 42.26802677 64.32358128 43.49975586 67.43774414 C43.87732529 68.38546188 44.25489471 69.33317963 44.64390564 70.30961609 C44.98595535 71.17778458 45.32800507 72.04595306 45.68041992 72.94042969 C45.98175842 73.70123337 46.28309692 74.46203705 46.59356689 75.24589539 C47.23413086 77.11352539 47.23413086 77.11352539 47.23413086 79.11352539 C47.89413086 79.11352539 48.55413086 79.11352539 49.23413086 79.11352539 C49.49086075 78.20874702 49.49086075 78.20874702 49.7527771 77.28569031 C51.57760387 71.01218213 53.74021749 64.95392027 56.14819336 58.88305664 C56.52213226 57.93073654 56.89607117 56.97841644 57.28134155 55.99723816 C58.47018579 52.97200813 59.66450188 49.9489751 60.85913086 46.92602539 C61.63684786 44.95026081 62.4141941 42.97435025 63.19116211 40.99829102 C64.74309028 37.05243628 66.29701617 33.10737699 67.85229492 29.1628418 C71.66504493 19.48711184 75.44845462 9.79987213 79.23413086 0.11352539 C85.17413086 0.11352539 91.11413086 0.11352539 97.23413086 0.11352539 C99.79913025 5.24352418 102.12893116 10.10003337 104.24267578 15.3840332 C104.51475357 16.06152618 104.78683136 16.73901917 105.06715393 17.43704224 C105.95303709 19.64556709 106.83396489 21.8560281 107.71459961 24.06665039 C108.33402728 25.61514196 108.95368547 27.16354134 109.57356262 28.71185303 C110.86584857 31.94187874 112.15574255 35.17284582 113.44384766 38.40454102 C115.09406724 42.54433449 116.7496863 46.68194278 118.40700817 50.81889725 C119.68460416 54.00941046 120.95965781 57.20093474 122.23391151 60.39278412 C122.84360905 61.91928299 123.45402489 63.44549516 124.06517601 64.97141266 C124.9172481 67.10013714 125.76596088 69.23017028 126.61376953 71.3605957 C127.09690109 72.5711261 127.58003265 73.78165649 128.07780457 75.02886963 C129.23413086 78.11352539 129.23413086 78.11352539 130.23413086 82.11352539 C123.96413086 82.11352539 117.69413086 82.11352539 111.23413086 82.11352539 C108.92413086 76.50352539 106.61413086 70.89352539 104.23413086 65.11352539 C93.67413086 64.78352539 83.11413086 64.45352539 72.23413086 64.11352539 C71.90413086 66.09352539 71.57413086 68.07352539 71.23413086 70.11352539 C69.58413086 74.07352539 67.93413086 78.03352539 66.23413086 82.11352539 C54.02413086 82.11352539 41.81413086 82.11352539 29.23413086 82.11352539 C23.23413086 66.11352539 23.23413086 66.11352539 23.23413086 64.11352539 C12.67413086 64.11352539 2.11413086 64.11352539 -8.76586914 64.11352539 C-9.75586914 67.41352539 -10.74586914 70.71352539 -11.76586914 74.11352539 C-12.75586914 76.75352539 -13.74586914 79.39352539 -14.76586914 82.11352539 C-21.03586914 82.11352539 -27.30586914 82.11352539 -33.76586914 82.11352539 C-28.80670256 67.70171345 -23.30106368 53.53782244 -17.70336914 39.36352539 C-16.37041132 35.98044022 -15.03829722 32.59702405 -13.70645142 29.21350098 C-12.85815752 27.05901574 -12.00919597 24.90479323 -11.15951538 22.75085449 C-8.59342899 16.24085186 -6.06565119 9.71902922 -3.60791016 3.16723633 C-2.37183219 0.15248195 -2.37183219 0.15248195 0 0 Z " fill="#FBFCFE" transform="translate(442.765869140625,1105.886474609375)"/>
<path d="M0 0 C5.61 0 11.22 0 17 0 C17.33 11.22 17.66 22.44 18 34 C21.63 30.04 25.26 26.08 29 22 C34.625 15.875 34.625 15.875 36.02050781 14.40917969 C38.24527028 12.04874217 40.14557039 9.76986589 41.8828125 7.0234375 C44.09837324 3.73254183 45.53109737 1.99084847 49 0 C56.58849468 -1.21202194 64.3743103 -0.61474616 72 0 C70.39371398 4.06214298 67.489562 6.71503047 64.40625 9.68359375 C63.28243448 10.78698961 62.15874028 11.89050904 61.03515625 12.99414062 C59.26665869 14.71915054 57.49576302 16.44160839 55.72216797 18.16137695 C54.00620109 19.82894966 52.29963739 21.50572035 50.59375 23.18359375 C50.0635022 23.69208359 49.53325439 24.20057343 48.98693848 24.72447205 C46.09041333 27.58181107 43.9546988 29.99118988 43 34 C44.23609085 36.46903644 45.43395533 38.37314377 47.0625 40.5625 C47.99800954 41.88797284 48.93149641 43.21487487 49.86328125 44.54296875 C50.36939941 45.25501465 50.87551758 45.96706055 51.39697266 46.70068359 C54.29171995 50.8527899 57.00960422 55.12014365 59.75 59.375 C60.80641881 61.00837736 61.86368726 62.64120558 62.921875 64.2734375 C63.42525391 65.05170898 63.92863281 65.82998047 64.44726562 66.63183594 C66.55378028 69.84460199 68.72527071 73.01237716 70.90722656 76.17431641 C72 78 72 78 72 80 C72.66 80 73.32 80 74 80 C74.07927734 79.23550537 74.15855469 78.47101074 74.24023438 77.68334961 C75.29595503 72.56520772 77.22274599 67.91088815 79.15625 63.06640625 C79.78799133 61.46296608 79.78799133 61.46296608 80.43249512 59.82713318 C81.78282284 56.40338327 83.14120828 52.98289842 84.5 49.5625 C85.38335988 47.32769024 86.26617742 45.09266604 87.1484375 42.85742188 C88.89595576 38.43146782 90.64628722 34.0066417 92.3984375 29.58251953 C96.29562181 19.73344185 100.14803782 9.86683169 104 0 C109.94 0 115.88 0 122 0 C124.56499939 5.12999879 126.8948003 9.98650798 129.00854492 15.27050781 C129.28062271 15.94800079 129.5527005 16.62549377 129.83302307 17.32351685 C130.71890623 19.5320417 131.59983403 21.74250271 132.48046875 23.953125 C133.09989642 25.50161657 133.71955461 27.05001595 134.33943176 28.59832764 C135.63171771 31.82835335 136.9216117 35.05932043 138.2097168 38.29101562 C139.85993638 42.4308091 141.51555544 46.56841739 143.17287731 50.70537186 C144.4504733 53.89588507 145.72552695 57.08740935 146.99978065 60.27925873 C147.60947819 61.8057576 148.21989404 63.33196977 148.83104515 64.85788727 C149.68311724 66.98661175 150.53183002 69.11664489 151.37963867 71.24707031 C151.86277023 72.45760071 152.34590179 73.6681311 152.84367371 74.91534424 C154 78 154 78 155 82 C148.73 82 142.46 82 136 82 C133.69 76.39 131.38 70.78 129 65 C118.44 64.67 107.88 64.34 97 64 C96.67 65.98 96.34 67.96 96 70 C95.20328876 72.14720211 94.34811875 74.27357211 93.4375 76.375 C92.98246094 77.43460938 92.52742187 78.49421875 92.05859375 79.5859375 C91.70925781 80.38257813 91.35992188 81.17921875 91 82 C56.55115821 85.80326916 56.55115821 85.80326916 47.84423828 79.83789062 C43.12149882 74.3421271 40.58173988 68.0328501 38.24560547 61.24023438 C36.15340396 55.79772194 33.07753072 50.93423195 30 46 C29.51104248 46.4122583 29.02208496 46.8245166 28.51831055 47.24926758 C27.35205078 48.23258464 26.18579102 49.21590169 25.01953125 50.19921875 C24.35308594 50.79347656 23.68664062 51.38773438 23 52 C22.113125 52.6290625 21.22625 53.258125 20.3125 53.90625 C16.65889308 58.79418358 17.21747536 63.86738604 17.1875 69.8125 C17.16236328 70.98232422 17.13722656 72.15214844 17.11132812 73.35742188 C17.05254244 76.23792046 17.02338822 79.11899656 17 82 C11.39 82 5.78 82 0 82 C0 54.94 0 27.88 0 0 Z " fill="#FCFCFE" transform="translate(581,1106)"/>
<path d="M0 0 C10.333125 -0.061875 10.333125 -0.061875 20.875 -0.125 C23.0288623 -0.14320801 25.18272461 -0.16141602 27.40185547 -0.18017578 C29.14029696 -0.18602593 30.87874122 -0.19112024 32.6171875 -0.1953125 C33.4944751 -0.20554443 34.3717627 -0.21577637 35.27563477 -0.22631836 C44.19498405 -0.22879115 52.64373557 0.66310227 60 6 C64.85857268 11.52741516 66.16214861 15.91102055 66.25 23.3125 C66.27578125 24.60800781 66.3015625 25.90351562 66.328125 27.23828125 C65.81744477 33.09286533 63.67394427 36.89175582 59.25 40.6875 C55.68568494 43.67096372 52.36674157 45.4534457 48 47 C48.46148438 47.33128906 48.92296875 47.66257812 49.3984375 48.00390625 C56.13093476 53.31273314 60.30106718 59.96686851 64.81591797 67.12841797 C65.92407384 68.8799897 67.05245057 70.61600536 68.19140625 72.34765625 C73 79.72083333 73 79.72083333 73 82 C66.04481492 83.58256837 58.78031084 84.68533031 52 82 C45.62470093 76.20736921 41.73254486 68.2996057 37.64892578 60.82373047 C35.23471214 56.68947004 32.38299581 52.19149791 28 50 C24.37 49.67 20.74 49.34 17 49 C17 59.89 17 70.78 17 82 C11.39 82 5.78 82 0 82 C0 54.94 0 27.88 0 0 Z " fill="#FCFCFE" transform="translate(744,1106)"/>
<path d="M0 0 C5.61 0 11.22 0 17 0 C17.33 11.22 17.66 22.44 18 34 C21.63 30.04 25.26 26.08 29 22 C34.625 15.875 34.625 15.875 36.02050781 14.40917969 C38.24527028 12.04874217 40.14557039 9.76986589 41.8828125 7.0234375 C44.09837324 3.73254183 45.53109737 1.99084847 49 0 C56.58849468 -1.21202194 64.3743103 -0.61474616 72 0 C70.39371398 4.06214298 67.489562 6.71503047 64.40625 9.68359375 C63.28243448 10.78698961 62.15874028 11.89050904 61.03515625 12.99414062 C59.26665869 14.71915054 57.49576302 16.44160839 55.72216797 18.16137695 C54.00620109 19.82894966 52.29963739 21.50572035 50.59375 23.18359375 C50.0635022 23.69208359 49.53325439 24.20057343 48.98693848 24.72447205 C46.09041333 27.58181107 43.9546988 29.99118988 43 34 C44.23609085 36.46903644 45.43395533 38.37314377 47.0625 40.5625 C47.99800954 41.88797284 48.93149641 43.21487487 49.86328125 44.54296875 C50.36939941 45.25501465 50.87551758 45.96706055 51.39697266 46.70068359 C54.29171995 50.8527899 57.00960422 55.12014365 59.75 59.375 C60.80641881 61.00837736 61.86368726 62.64120558 62.921875 64.2734375 C63.42525391 65.05170898 63.92863281 65.82998047 64.44726562 66.63183594 C66.55378028 69.84460199 68.72527071 73.01237716 70.90722656 76.17431641 C72 78 72 78 72 80 C72.66 80.33 73.32 80.66 74 81 C70.94907557 84.05092443 63.82885574 83.51293368 59.78881836 83.70996094 C55.15201644 83.51374966 52.14728691 83.08124725 48.70117188 79.83349609 C44.47066402 74.0811862 41.46576863 67.72772626 38.53564453 61.24023438 C36.03444796 55.96266984 33.02285108 50.99198745 30 46 C29.51104248 46.4122583 29.02208496 46.8245166 28.51831055 47.24926758 C27.35205078 48.23258464 26.18579102 49.21590169 25.01953125 50.19921875 C24.35308594 50.79347656 23.68664062 51.38773438 23 52 C22.113125 52.6290625 21.22625 53.258125 20.3125 53.90625 C16.65889308 58.79418358 17.21747536 63.86738604 17.1875 69.8125 C17.16236328 70.98232422 17.13722656 72.15214844 17.11132812 73.35742188 C17.05254244 76.23792046 17.02338822 79.11899656 17 82 C11.39 82 5.78 82 0 82 C0 54.94 0 27.88 0 0 Z " fill="#FCFDFE" transform="translate(581,1106)"/>
<path d="M0 0 C4.27948718 3.68234944 7.88849082 7.91547246 9.6875 13.3125 C9.6875 15.9525 9.6875 18.5925 9.6875 21.3125 C4.0775 21.3125 -1.5325 21.3125 -7.3125 21.3125 C-8.25651042 19.29427083 -9.20052083 17.27604167 -10.14453125 15.2578125 C-11.30717097 13.00707194 -11.30717097 13.00707194 -14.3125 11.3125 C-17.57302786 10.95540604 -17.57302786 10.95540604 -21.1875 11 C-22.40179687 10.98324219 -23.61609375 10.96648437 -24.8671875 10.94921875 C-28.54142477 11.33663833 -30.45328014 11.99712422 -33.3125 14.3125 C-33.72996608 17.43885209 -33.72996608 17.43885209 -33.3125 20.3125 C-27.3012374 23.57735824 -21.54303355 25.49165343 -14.9375 27.1875 C-3.91562733 30.21136879 4.38158938 33.07632704 10.62890625 43.1640625 C13.45043342 48.89040915 13.69051336 55.59047451 12.0390625 61.71875 C9.07949098 69.10503107 4.39963012 74.41579453 -2.875 77.75 C-8.63588655 79.59828443 -14.37464338 79.7328426 -20.375 79.8125 C-21.29676025 79.83111084 -22.21852051 79.84972168 -23.16821289 79.86889648 C-32.0096886 79.78781092 -40.21810012 77.28119351 -46.77734375 71.140625 C-51.69423534 65.28539532 -53.89372569 58.85043754 -54.3125 51.3125 C-50.70256828 50.17769473 -47.3282673 50.21234233 -43.5625 50.25 C-41.80679688 50.26353516 -41.80679688 50.26353516 -40.015625 50.27734375 C-39.12359375 50.28894531 -38.2315625 50.30054688 -37.3125 50.3125 C-37.044375 50.98796875 -36.77625 51.6634375 -36.5 52.359375 C-34.07687056 57.87518281 -32.15692924 61.48982257 -26.41796875 63.76171875 C-19.73570829 65.50976833 -14.48773634 64.18717899 -8.3125 61.3125 C-6.17663322 58.10869983 -6.08117825 57.29310033 -6.1875 53.625 C-6.20554687 52.81675781 -6.22359375 52.00851562 -6.2421875 51.17578125 C-6.26539063 50.56089844 -6.28859375 49.94601562 -6.3125 49.3125 C-10.68405095 47.7743617 -15.04220826 46.36304529 -19.53125 45.2109375 C-42.80722079 39.21006262 -42.80722079 39.21006262 -49.2890625 28.36328125 C-51.99574184 22.93959174 -52.36297727 16.91323234 -50.6640625 11.08984375 C-47.59711621 4.28751415 -42.51375163 0.12856381 -35.875 -3.0625 C-24.4621799 -7.2205244 -10.6413647 -5.42107259 0 0 Z " fill="#FBFCFD" transform="translate(875.3125,1109.6875)"/>
<path d="M0 0 C5.61 0 11.22 0 17 0 C17 10.56 17 21.12 17 32 C27.23 32 37.46 32 48 32 C48 21.44 48 10.88 48 0 C53.61 0 59.22 0 65 0 C65 27.06 65 54.12 65 82 C59.39 82 53.78 82 48 82 C48 70.45 48 58.9 48 47 C37.77 47 27.54 47 17 47 C17 58.55 17 70.1 17 82 C11.39 82 5.78 82 0 82 C0 54.94 0 27.88 0 0 Z " fill="#FCFDFE" transform="translate(901,1106)"/>
<path d="M0 0 C3.87542277 -0.0811135 7.74913882 -0.1405605 11.625 -0.1875 C13.26662109 -0.22520508 13.26662109 -0.22520508 14.94140625 -0.26367188 C25.22589883 -0.35716726 25.22589883 -0.35716726 30 3 C31.9579567 6.06462787 32.00156724 7.91066741 31.9375 11.5625 C31 15 31 15 28.875 17.375 C22.87064015 20.76876861 15.78126945 20.12839888 9.0625 20.0625 C4.5765625 20.0315625 4.5765625 20.0315625 0 20 C0 13.4 0 6.8 0 0 Z " fill="#2F4DBB" transform="translate(761,1121)"/>
<path d="M0 0 C2.95500087 1.47750043 3.07556833 3.45571569 4.1640625 6.53125 C4.56367188 7.65144531 4.96328125 8.77164062 5.375 9.92578125 C5.99375 11.69501953 5.99375 11.69501953 6.625 13.5 C7.04523438 14.67949219 7.46546875 15.85898438 7.8984375 17.07421875 C11 25.8250558 11 25.8250558 11 27 C4.4 27 -2.2 27 -9 27 C-8.25586432 23.27932159 -7.44581937 20.21008115 -6.15234375 16.69921875 C-5.79462891 15.72275391 -5.43691406 14.74628906 -5.06835938 13.74023438 C-4.50858398 12.22913086 -4.50858398 12.22913086 -3.9375 10.6875 C-3.37192383 9.14739258 -3.37192383 9.14739258 -2.79492188 7.57617188 C-1.86653932 5.04956113 -0.93479871 2.52424239 0 0 Z " fill="#3151C2" transform="translate(449,1128)"/>
<path d="M0 0 C2.80868131 4.21302197 4.33684725 8.78003497 6.125 13.5 C6.49753906 14.46292969 6.87007812 15.42585938 7.25390625 16.41796875 C7.60582031 17.34222656 7.95773437 18.26648437 8.3203125 19.21875 C8.64273926 20.06373047 8.96516602 20.90871094 9.29736328 21.77929688 C10 24 10 24 10 27 C3.4 27 -3.2 27 -10 27 C-8.89892339 23.81140279 -7.79424675 20.62412897 -6.6875 17.4375 C-6.37876953 16.54224609 -6.07003906 15.64699219 -5.75195312 14.72460938 C-4.01145543 9.72296862 -2.15653361 4.83727077 0 0 Z " fill="#3050C0" transform="translate(531,1128)"/>
<path d="M0 0 C2.80868131 4.21302197 4.33684725 8.78003497 6.125 13.5 C6.49753906 14.46292969 6.87007812 15.42585938 7.25390625 16.41796875 C7.60582031 17.34222656 7.95773437 18.26648437 8.3203125 19.21875 C8.64273926 20.06373047 8.96516602 20.90871094 9.29736328 21.77929688 C10 24 10 24 10 27 C3.4 27 -3.2 27 -10 27 C-8.89892339 23.81140279 -7.79424675 20.62412897 -6.6875 17.4375 C-6.37876953 16.54224609 -6.07003906 15.64699219 -5.75195312 14.72460938 C-4.01145543 9.72296862 -2.15653361 4.83727077 0 0 Z " fill="#2F4DBC" transform="translate(694,1128)"/>
</svg>
